<svg xmlns="http://www.w3.org/2000/svg" viewBox="0 0 512 512"><defs><linearGradient id="gactionbuysvg" x1="52" x2="460" y1="40" y2="476" gradientUnits="userSpaceOnUse"><stop offset="0" stop-color="#178f3c"/><stop offset="1" stop-color="#f5e638"/></linearGradient></defs><rect width="512" height="512" rx="86" fill="url(#gactionbuysvg)"/><path d="M60 386c112 70 275 67 392-7v73H60z" fill="#0d4f21" opacity=".32"/><circle cx="386" cy="112" r="88" fill="#fff" opacity=".13"/><circle cx="256" cy="256" r="222" fill="none" stroke="#fff" stroke-width="20" opacity=".18"/><g transform="translate(42 42) scale(.835)"><path fill="#fff" d="M298.9 24.31c-14.9.3-25.6 3.2-32.7 8.4l-97.3 52.1-54.1 73.59c-11.4 17.6-3.3 51.6 32.3 29.8l39-51.4c49.5-42.69 150.5-23.1 102.6 62.6-23.5 49.6-12.5 73.8 17.8 84l13.8-46.4c23.9-53.8 68.5-63.5 66.7-106.9l107.2 7.7-1-112.09-194.3-1.4zM244.8 127.7c-17.4-.3-34.5 6.9-46.9 17.3l-39.1 51.4c10.7 8.5 21.5 3.9 32.2-6.4 12.6 6.4 22.4-3.5 30.4-23.3 3.3-13.5 8.2-23 23.4-39zm-79.6 96c-.4 0-.9 0-1.3.1-3.3.7-7.2 4.2-9.8 12.2-2.7 8-3.3 19.4-.9 31.6 2.4 12.1 7.4 22.4 13 28.8 5.4 6.3 10.4 8.1 13.7 7.4 3.4-.6 7.2-4.2 9.8-12.1 2.7-8 3.4-19.5 1-31.6-2.5-12.2-7.5-22.5-13-28.8-4.8-5.6-9.2-7.6-12.5-7.6zm82.6 106.8c-7.9.1-17.8 2.6-27.5 7.3-11.1 5.5-19.8 13.1-24.5 20.1-4.7 6.9-5.1 12.1-3.6 15.2 1.5 3 5.9 5.9 14.3 6.3 8.4.5 19.7-1.8 30.8-7.3 11.1-5.5 19.8-13 24.5-20 4.7-6.9 5.1-12.2 3.6-15.2-1.5-3.1-5.9-5.9-14.3-6.3-1.1-.1-2.1-.1-3.3-.1zm-97.6 95.6c-4.7.1-9 .8-12.8 1.9-8.5 2.5-13.4 7-15 12.3-1.7 5.4 0 11.8 5.7 18.7 5.8 6.8 15.5 13.3 27.5 16.9 11.9 3.6 23.5 3.5 32.1.9 8.6-2.5 13.5-7 15.1-12.3 1.6-5.4 0-11.8-5.8-18.7-5.7-6.8-15.4-13.3-27.4-16.9-6.8-2-13.4-2.9-19.4-2.8z"/></g></svg>