<svg xmlns="http://www.w3.org/2000/svg" viewBox="0 0 512 512"><defs><linearGradient id="gammocratesvg" x1="52" x2="460" y1="40" y2="476" gradientUnits="userSpaceOnUse"><stop offset="0" stop-color="#d14a2f"/><stop offset="1" stop-color="#611713"/></linearGradient></defs><rect width="512" height="512" rx="86" fill="url(#gammocratesvg)"/><path d="M60 386c112 70 275 67 392-7v73H60z" fill="#ffd06a" opacity=".32"/><circle cx="386" cy="112" r="88" fill="#fff" opacity=".13"/><circle cx="256" cy="256" r="222" fill="none" stroke="#fff" stroke-width="20" opacity=".18"/><g transform="translate(42 42) scale(.835)"><path fill="#fff" d="M166 16c-7.844 0-15 7.353-15 15v30h15v30h-60c-68.24 0-75.004 53.136-75 75v270c.002 11.74-15 30-15 30v30h480v-30s-15.002-18.26-15-30V166c.004-21.864-6.76-75-75-75h-60V61h15V31c0-7.647-7.156-15-15-15H166zm72.03 45c1.045-.007 2.032 0 2.97 0h30c15 0 45 0 45 30H196c0-28.125 26.376-29.89 42.03-30zM121 151h270c19.21 0 30 10.98 30 30v240c0 8.467-7.733 15-15 15H106c-7.267 0-15-6.533-15-15V181c0-19.02 10.79-30 30-30zm30 30s-30 21.842-30 60v105h60V241c0-38.158-30-60-30-60zm105 0s-30 21.842-30 60v105h60V241c0-38.158-30-60-30-60zm105 0s-30 21.842-30 60v105h60V241c0-38.158-30-60-30-60zM121 361v30h60v-30h-60zm105 0v30h60v-30h-60zm105 0v30h60v-30h-60z"/></g></svg>