<svg xmlns="http://www.w3.org/2000/svg" viewBox="0 0 512 512"><defs><linearGradient id="gbatterysvg" x1="52" x2="460" y1="40" y2="476" gradientUnits="userSpaceOnUse"><stop offset="0" stop-color="#2f6a78"/><stop offset="1" stop-color="#071216"/></linearGradient></defs><rect width="512" height="512" rx="86" fill="url(#gbatterysvg)"/><path d="M60 386c112 70 275 67 392-7v73H60z" fill="#d84b3c" opacity=".32"/><circle cx="386" cy="112" r="88" fill="#fff" opacity=".13"/><circle cx="256" cy="256" r="222" fill="none" stroke="#fff" stroke-width="20" opacity=".18"/><g transform="translate(42 42) scale(.835)"><path fill="#fff" d="M201 16c-15 0-20 3.38-20 20v15h-45c-29.547 0-35 5.453-35 35v375c0 29.547 5.453 35 35 35h240c29.547 0 35-5.453 35-35V86c0-29.547-5.453-35-35-35h-45V36c0-16.62-5-20-20-20H201zm-48.094 69.813c4.666.02 10.594.187 18.094.187h170c40 0 35-5 35 35v305c0 40 5 35-35 35H171c-40 0-35 5-35-35V121c0-32.5-3.31-35.283 16.906-35.188zM161 191c-5.54 0-10 4.46-10 10v55c0 5.54 4.46 10 10 10h190c5.54 0 10-4.46 10-10v-55c0-5.54-4.46-10-10-10H161zm0 90c-5.54 0-10 4.46-10 10v55c0 5.54 4.46 10 10 10h190c5.54 0 10-4.46 10-10v-55c0-5.54-4.46-10-10-10H161zm0 90c-5.54 0-10 4.46-10 10v55c0 5.54 4.46 10 10 10h190c5.54 0 10-4.46 10-10v-55c0-5.54-4.46-10-10-10H161z"/></g></svg>