<svg xmlns="http://www.w3.org/2000/svg" viewBox="0 0 512 512"><defs><linearGradient id="gcrosshairsvg" x1="52" x2="460" y1="40" y2="476" gradientUnits="userSpaceOnUse"><stop offset="0" stop-color="#2f6a78"/><stop offset="1" stop-color="#071216"/></linearGradient></defs><rect width="512" height="512" rx="86" fill="url(#gcrosshairsvg)"/><path d="M60 386c112 70 275 67 392-7v73H60z" fill="#d84b3c" opacity=".32"/><circle cx="386" cy="112" r="88" fill="#fff" opacity=".13"/><circle cx="256" cy="256" r="222" fill="none" stroke="#fff" stroke-width="20" opacity=".18"/><g transform="translate(42 42) scale(.835)"><path fill="#fff" d="M247 32v23.21C143.25 59.8 59.798 143.25 55.21 247H32v18h23.21C59.8 368.75 143.25 452.202 247 456.79V480h18v-23.21C368.75 452.2 452.202 368.75 456.79 265H480v-18h-23.21C452.2 143.25 368.75 59.798 265 55.21V32h-18zm0 41.223V128h18V73.223C359 77.76 434.24 153 438.777 247H384v18h54.777C434.24 359 359 434.24 265 438.777V384h-18v54.777C153 434.24 77.76 359 73.223 265H128v-18H73.223C77.76 153 153 77.76 247 73.223zM247 224v23h-23v18h23v23h18v-23h23v-18h-23v-23h-18z"/></g></svg>