<svg xmlns="http://www.w3.org/2000/svg" viewBox="0 0 512 512"><defs><linearGradient id="ggaugesvg" x1="52" x2="460" y1="40" y2="476" gradientUnits="userSpaceOnUse"><stop offset="0" stop-color="#2f6a78"/><stop offset="1" stop-color="#071216"/></linearGradient></defs><rect width="512" height="512" rx="86" fill="url(#ggaugesvg)"/><path d="M60 386c112 70 275 67 392-7v73H60z" fill="#d84b3c" opacity=".32"/><circle cx="386" cy="112" r="88" fill="#fff" opacity=".13"/><circle cx="256" cy="256" r="222" fill="none" stroke="#fff" stroke-width="20" opacity=".18"/><g transform="translate(42 42) scale(.835)"><path fill="#fff" d="M105 73v174h46V73h-46zm-73 48c-1.75 0-2.906.439-4.574 1.898-1.668 1.46-3.578 4.104-5.201 7.756C18.978 137.96 17 149 17 160s1.978 22.041 5.225 29.346c1.623 3.652 3.533 6.296 5.2 7.756C29.095 198.562 30.25 199 32 199h55v-78H32zm137 0v30h180l40-30H169zm247.95 1.537L367 160l49.95 37.463L491.872 160l-74.924-37.463zM169 169v30h220l-40-30H169zM23 311v146h466V311H23zm361 18h87v110h-87V329z"/></g></svg>