<svg xmlns="http://www.w3.org/2000/svg" viewBox="0 0 512 512"><defs><linearGradient id="ggavelsvg" x1="52" x2="460" y1="40" y2="476" gradientUnits="userSpaceOnUse"><stop offset="0" stop-color="#8f2f3f"/><stop offset="1" stop-color="#28150f"/></linearGradient></defs><rect width="512" height="512" rx="86" fill="url(#ggavelsvg)"/><path d="M60 386c112 70 275 67 392-7v73H60z" fill="#f1c66a" opacity=".32"/><circle cx="386" cy="112" r="88" fill="#fff" opacity=".13"/><circle cx="256" cy="256" r="222" fill="none" stroke="#fff" stroke-width="20" opacity=".18"/><g transform="translate(42 42) scale(.835)"><path fill="#fff" d="M155 18L80.47 38.98l15.9 55.79L283.5 41.95 276.8 18zm105.5 48l-131 37 61.1 216.4 130.9-37zm53.3 52.9l-19.4 5.5 24 85 19.5-5.5zm-182.7 51.6l-19.5 5.5 24 85 19.5-5.4zm-30.9 27.6L18 221.3v54.3l96.5-27.4zm287.4 19.7l-55.7 34.7 6.5 24.6 28.4-8 24.4 89.6L171 421.3c-8.4-30-16.9-60-25.3-90l27.3-7.7-6.3-22.7-70.53-3.8L137 336.7 28.26 385.6s117.34 4.1 114.34 4.6c-3.1.5-31.3 84.4-31.3 84.4l88-45.2 22.9 64.3 70.6-76.4 94.4 49.7-24.7-70.9 113.5-5.6-77.7-53.7 94.6-66.3-113.4 3.5zM354 290.7l-187.3 52.9 15.7 55.9 187.2-52.9z"/></g></svg>