<svg xmlns="http://www.w3.org/2000/svg" viewBox="0 0 512 512"><defs><linearGradient id="ghourglasssvg" x1="52" x2="460" y1="40" y2="476" gradientUnits="userSpaceOnUse"><stop offset="0" stop-color="#4e6b88"/><stop offset="1" stop-color="#16233a"/></linearGradient></defs><rect width="512" height="512" rx="86" fill="url(#ghourglasssvg)"/><path d="M60 386c112 70 275 67 392-7v73H60z" fill="#e9d7ad" opacity=".32"/><circle cx="386" cy="112" r="88" fill="#fff" opacity=".13"/><circle cx="256" cy="256" r="222" fill="none" stroke="#fff" stroke-width="20" opacity=".18"/><g transform="translate(42 42) scale(.835)"><path fill="#fff" d="M92.656 19.188v41.5h331.72v-41.5H92.655zM119.5 79.374V433.53h22.28V79.376H119.5zm46.594 0c3.212 43.324 13.312 82.022 27.78 110.906 17.685 35.304 40.845 54.75 64.064 54.75 23.218 0 46.346-19.446 64.03-54.75 14.47-28.883 24.57-67.58 27.782-110.905H166.094zm209.156 0V433.53h22.28V79.376h-22.28zm-117.313 185.22c-23.218 0-46.378 19.415-64.062 54.717-14.835 29.614-25.098 69.562-28.03 114.22H350c-2.933-44.658-13.197-84.606-28.03-114.22-17.686-35.302-40.814-54.718-64.033-54.718zM92.657 452.218v41.467h331.718V452.22H92.655z"/></g></svg>