<svg xmlns="http://www.w3.org/2000/svg" viewBox="0 0 512 512"><defs><linearGradient id="gphaseresolutionsvg" x1="52" x2="460" y1="40" y2="476" gradientUnits="userSpaceOnUse"><stop offset="0" stop-color="#178f3c"/><stop offset="1" stop-color="#f5e638"/></linearGradient></defs><rect width="512" height="512" rx="86" fill="url(#gphaseresolutionsvg)"/><path d="M60 386c112 70 275 67 392-7v73H60z" fill="#0d4f21" opacity=".32"/><circle cx="386" cy="112" r="88" fill="#fff" opacity=".13"/><circle cx="256" cy="256" r="222" fill="none" stroke="#fff" stroke-width="20" opacity=".18"/><g transform="translate(42 42) scale(.835)"><path fill="#fff" d="M256 25c-11.594 0-23 12.8-23 31s11.406 31 23 31 23-12.8 23-31-11.406-31-23-31zm-103.951 2.975l-16.098 8.05c15.092 30.185 51.37 56.81 82.188 74.442L232.334 295H247V192h18v103h14.666l14.195-184.533c30.818-17.632 67.096-44.257 82.188-74.442l-16.098-8.05c-19.91 29.9-44.891 49.148-71.334 57.77C281.311 97.28 269.75 105 256 105c-13.75 0-25.31-7.72-32.617-19.256-26.443-8.62-51.424-27.87-71.334-57.77zM169 313v96H25v78h462v-30H343V313H169z"/></g></svg>