<svg xmlns="http://www.w3.org/2000/svg" viewBox="0 0 512 512"><defs><linearGradient id="grolerebelsvg" x1="52" x2="460" y1="40" y2="476" gradientUnits="userSpaceOnUse"><stop offset="0" stop-color="#d14a2f"/><stop offset="1" stop-color="#611713"/></linearGradient></defs><rect width="512" height="512" rx="86" fill="url(#grolerebelsvg)"/><path d="M60 386c112 70 275 67 392-7v73H60z" fill="#ffd06a" opacity=".32"/><circle cx="386" cy="112" r="88" fill="#fff" opacity=".13"/><circle cx="256" cy="256" r="222" fill="none" stroke="#fff" stroke-width="20" opacity=".18"/><g transform="translate(42 42) scale(.835)"><path fill="#fff" d="M106 145.23c0-36.923 37.5-36.923 37.5-36.923s-18.75-23.163-18.75-36.922c0-13.76 0-18.462 18.75-36.922C162.25 16 162.25 16 181 16h150c18.75 0 42.22 19.56 56.25 36.923C398.26 66.556 406 89.845 406 101.813c0 61.88-50.018 178.424-50.018 178.424l6.137 215.197-203.352.566L181 274.46l-37.5-36.922c-18.75-18.462-37.5-36.924-37.5-55.384z"/></g></svg>