<svg xmlns="http://www.w3.org/2000/svg" viewBox="0 0 512 512"><defs><linearGradient id="gstarsvg" x1="52" x2="460" y1="40" y2="476" gradientUnits="userSpaceOnUse"><stop offset="0" stop-color="#4e6b88"/><stop offset="1" stop-color="#16233a"/></linearGradient></defs><rect width="512" height="512" rx="86" fill="url(#gstarsvg)"/><path d="M60 386c112 70 275 67 392-7v73H60z" fill="#e9d7ad" opacity=".32"/><circle cx="386" cy="112" r="88" fill="#fff" opacity=".13"/><circle cx="256" cy="256" r="222" fill="none" stroke="#fff" stroke-width="20" opacity=".18"/><g transform="translate(42 42) scale(.835)"><path fill="#fff" d="M41 27.7v46h430v-46zm32 64v112.5l62 20.7V91.7zm80 0v139.2l79.3 26.4c-10.4 7.5-17.3 19.7-17.3 33.4 0 21 16.1 38.5 36.5 40.7l-22.3 43.7-58.2 9.3 41.6 41.7-9.1 58.2 52.5-26.7 52.5 26.7-9.1-58.2 41.6-41.7-58.2-9.3-22.3-43.7c20.4-2.2 36.5-19.7 36.5-40.7 0-13.7-6.9-25.9-17.3-33.4l79.3-26.4V91.7h-94v159c-2.9-.6-5.9-1-9-1-3.1 0-6.1.4-9 1v-159zm224 0v133.2l62-20.7V91.7zm-121 176c12.8 0 23 10.2 23 23s-10.2 23-23 23-23-10.2-23-23 10.2-23 23-23z"/></g></svg>