<svg xmlns="http://www.w3.org/2000/svg" viewBox="0 0 512 512"><defs><linearGradient id="gsubmarinesvg" x1="52" x2="460" y1="40" y2="476" gradientUnits="userSpaceOnUse"><stop offset="0" stop-color="#2f6a78"/><stop offset="1" stop-color="#071216"/></linearGradient></defs><rect width="512" height="512" rx="86" fill="url(#gsubmarinesvg)"/><path d="M60 386c112 70 275 67 392-7v73H60z" fill="#d84b3c" opacity=".32"/><circle cx="386" cy="112" r="88" fill="#fff" opacity=".13"/><circle cx="256" cy="256" r="222" fill="none" stroke="#fff" stroke-width="20" opacity=".18"/><g transform="translate(42 42) scale(.835)"><path fill="#fff" d="M315 144v21.75L292 160l-16 80H164c-49.154 16.385-81.254 27.1-102.578 34.846L52 256l-16-16v44.918C20.047 292.31 20 296.316 20 304c0 7.712.05 11.717 16 19.162V368l16-16 9.352-18.703c21.094 7.734 52.752 18.418 101.072 34.703H372c160-16 160-128 0-128h-16v-64l-23-5.75V144h-18zM148 263h256v18H148v-18z"/></g></svg>